<svg xmlns="http://www.w3.org/2000/svg" viewBox="0 0 96 112" fill="none" aria-hidden="true">
  <defs>
    <linearGradient id="flaskStroke" x1="8" y1="100" x2="88" y2="6" gradientUnits="userSpaceOnUse">
      <stop offset="0%" stop-color="#15803D"/>
      <stop offset="38%" stop-color="#22C55E"/>
      <stop offset="100%" stop-color="#1D4ED8"/>
    </linearGradient>
    <linearGradient id="dnaStroke" x1="24" y1="78" x2="46" y2="32" gradientUnits="userSpaceOnUse">
      <stop stop-color="#4ADE80"/>
      <stop offset="1" stop-color="#38BDF8"/>
    </linearGradient>
    <linearGradient id="molFill" x1="54" y1="56" x2="90" y2="18" gradientUnits="userSpaceOnUse">
      <stop stop-color="#22C55E"/>
      <stop offset="1" stop-color="#3B82F6"/>
    </linearGradient>
    <radialGradient id="flaskGlow" cx="38" cy="70" r="30" gradientUnits="userSpaceOnUse">
      <stop offset="0%" stop-color="#22C55E" stop-opacity="0.2"/>
      <stop offset="100%" stop-color="#2563EB" stop-opacity="0"/>
    </radialGradient>
  </defs>

  <g transform="rotate(-8 48 56)">
    <!-- Burbujas -->
    <circle cx="34" cy="16" r="2.5" fill="#4ADE80"/>
    <circle cx="42" cy="10" r="2" fill="#60A5FA"/>
    <circle cx="49" cy="14" r="1.6" fill="#86EFAC"/>
    <circle cx="38" cy="8" r="1.1" fill="#4ADE80" opacity="0.75"/>

    <ellipse cx="36" cy="70" rx="24" ry="22" fill="url(#flaskGlow)"/>

    <!-- Matraz redondo -->
    <path
      d="M31 26 C27 26 24 29 24 33 V40 C24 40 18 48 18 61 C18 77 27 89 39 92 C51 95 63 86 67 72 C71 58 66 47 60 41 V33 C60 29 57 26 53 26"
      stroke="url(#flaskStroke)"
      stroke-width="3.4"
      stroke-linecap="round"
      stroke-linejoin="round"
      fill="rgba(34,197,94,0.07)"
    />
    <path d="M31 26 V18 C31 15 33.5 13 36 13" stroke="url(#flaskStroke)" stroke-width="3.2" stroke-linecap="round"/>
    <path d="M53 26 V18 C53 15 50.5 13 48 13" stroke="url(#flaskStroke)" stroke-width="3.2" stroke-linecap="round"/>

    <!-- ADN -->
    <path d="M28 78 C31 70 35 63 32 55 C29 47 31 41 34 35" stroke="url(#dnaStroke)" stroke-width="2.5" stroke-linecap="round"/>
    <path d="M36 78 C33 70 29 63 32 55 C35 47 33 41 30 35" stroke="url(#dnaStroke)" stroke-width="2.5" stroke-linecap="round"/>
    <path d="M30 72 H34 M29 60 H35 M30 48 H34" stroke="#4ADE80" stroke-width="1.7" stroke-linecap="round" opacity="0.9"/>
    <path d="M31 66 H33 M32 54 H34" stroke="#38BDF8" stroke-width="1.5" stroke-linecap="round" opacity="0.8"/>

    <!-- Molécula -->
    <circle cx="58" cy="40" r="4.4" fill="url(#molFill)"/>
    <circle cx="71" cy="31" r="3.8" fill="#3B82F6"/>
    <circle cx="80" cy="44" r="3.3" fill="#22C55E"/>
    <circle cx="67" cy="52" r="2.9" fill="#60A5FA"/>
    <path d="M58 40 L71 31 M71 31 L80 44 M58 40 L67 52 M67 52 L80 44" stroke="#93C5FD" stroke-width="2.1" stroke-linecap="round"/>
  </g>
</svg>
